<?xml version="1.0" standalone="no"?>
<!DOCTYPE svg PUBLIC "-//W3C//DTD SVG 20010904//EN"
 "http://www.w3.org/TR/2001/REC-SVG-20010904/DTD/svg10.dtd">
<svg version="1.0" xmlns="http://www.w3.org/2000/svg"
 width="300.000000pt" height="232.000000pt" viewBox="0 0 300.000000 232.000000"
 preserveAspectRatio="xMidYMid meet">
<g transform="translate(0.000000,232.000000) scale(0.100000,-0.100000)"
fill="#000000" stroke="none">
<path className="path1" d="M1508 1780 c-85 -16 -187 -44 -211 -57 -5 -3 1 -15 13 -28 l21 -22
-45 -114 c-35 -85 -43 -115 -33 -121 8 -5 6 -8 -8 -9 -11 0 -14 -3 -7 -6 6 -2
12 -11 12 -19 0 -12 8 -10 40 6 54 27 140 28 165 0 14 -15 31 -20 72 -20 29 0
53 -1 53 -2 0 -2 -14 -48 -30 -103 -16 -55 -30 -106 -30 -112 0 -9 17 -13 53
-13 l52 -1 -25 -20 c-71 -59 -79 -69 -85 -113 l-7 -46 -107 0 c-105 0 -108 1
-121 25 -13 25 -17 26 -89 23 -41 -2 -76 -8 -78 -13 -2 -7 20 -8 64 -4 66 6
69 5 93 -23 l25 -29 110 3 110 3 14 53 c11 42 23 61 58 89 57 47 56 63 -3 63
-54 0 -53 -10 -10 142 13 48 21 89 18 92 -3 3 -31 6 -62 6 -45 0 -61 4 -76 21
-16 17 -28 20 -80 17 -34 -2 -60 0 -57 5 2 4 30 7 62 7 45 0 62 -4 76 -20 15
-16 31 -20 87 -20 37 0 68 1 68 3 0 1 23 81 50 177 28 96 50 181 50 187 0 18
-84 15 -202 -7z m187 -2 c-2 -7 -25 -85 -51 -173 -25 -88 -51 -163 -58 -167
-24 -16 -93 -8 -111 12 -31 34 -195 25 -195 -11 0 -6 5 -7 10 -4 6 3 10 4 10
1 0 -3 -8 -10 -17 -15 -32 -16 -24 35 23 147 39 94 42 108 29 122 -8 9 -15 19
-15 22 0 15 214 59 340 71 19 2 36 5 37 5 1 1 0 -4 -2 -10z"/>
<path d="M1656 1522 c-44 -152 -80 -289 -82 -304 l-2 -28 88 0 c66 0 100 5
135 20 32 14 69 20 116 20 38 0 69 3 69 8 0 4 -16 18 -34 32 -24 18 -31 29
-25 40 5 8 15 53 24 100 14 81 17 86 69 140 53 52 55 58 62 120 l6 65 -53 18
c-78 26 -187 47 -244 47 l-50 0 -79 -278z m304 234 c30 -8 67 -19 82 -25 29
-11 29 -13 12 -101 -3 -14 -29 -49 -57 -78 -51 -52 -52 -55 -72 -157 l-21
-104 25 -25 24 -25 -54 6 c-44 4 -63 1 -97 -16 -32 -17 -59 -21 -127 -21 -50
0 -85 4 -85 10 0 8 138 504 154 555 5 14 140 2 216 -19z"/>
<path d="M2091 1658 c-9 -56 -16 -68 -60 -111 -47 -45 -51 -52 -65 -130 -9
-46 -16 -92 -16 -103 0 -10 20 -41 44 -69 l43 -49 41 18 c34 15 54 18 109 12
38 -4 78 -14 90 -22 15 -9 49 -14 103 -14 l80 0 0 44 c0 50 -32 160 -65 227
-41 80 -110 154 -194 208 -44 28 -84 51 -89 51 -6 0 -15 -28 -21 -62z m108 -7
c32 -22 80 -64 106 -93 56 -62 120 -192 130 -263 4 -27 9 -58 12 -67 4 -16 -4
-18 -72 -18 -50 0 -87 5 -106 16 -23 11 -51 14 -112 11 -45 -2 -91 -7 -102
-10 -15 -5 -28 3 -56 36 l-37 43 15 89 c15 88 16 91 68 145 47 48 55 62 61
108 8 61 7 61 93 3z"/>
<path d="M1165 1669 c-44 -22 -118 -66 -165 -97 -103 -68 -270 -229 -251 -241
9 -6 6 -10 -12 -15 -17 -4 -39 -29 -71 -80 -45 -72 -96 -176 -96 -196 0 -6 31
-10 69 -10 67 0 69 -1 96 -35 l26 -36 131 3 130 3 83 200 c46 110 81 203 78
208 -2 4 -18 7 -34 7 -17 0 -40 6 -52 12 -12 7 -49 15 -82 19 l-60 6 65 1 c40
1 75 -4 90 -13 14 -8 39 -14 56 -15 30 0 32 3 82 123 28 67 54 130 58 140 8
21 -21 57 -45 57 -9 0 -52 -19 -96 -41z m79 -127 c-30 -69 -59 -131 -64 -136
-7 -7 -21 -6 -43 4 -17 7 -67 15 -109 18 -70 3 -78 2 -78 -15 0 -13 -3 -14 -8
-6 -11 18 -112 -25 -112 -46 0 -12 -2 -13 -8 -3 -5 7 -17 10 -28 7 -31 -10
112 121 199 182 44 31 123 78 175 104 87 44 98 47 113 33 15 -14 13 -24 -37
-142z m-248 -154 c48 3 78 -1 105 -13 21 -10 47 -15 57 -13 18 5 19 4 5 -21
-7 -14 -44 -100 -82 -191 l-68 -165 -126 -3 -126 -3 -17 31 c-18 29 -21 30
-87 30 -78 0 -78 -1 -30 93 53 106 94 159 135 175 25 10 37 20 34 29 -3 7 -1
13 4 13 6 0 10 -4 10 -9 0 -6 12 -6 30 0 17 6 30 18 30 27 0 13 2 14 8 4 11
-17 42 -5 43 17 0 9 2 12 5 6 2 -6 32 -9 70 -7z"/>
<path d="M1223 1395 c-11 -12 -173 -406 -173 -420 0 -3 5 -5 11 -5 5 0 8 4 5
9 -3 5 2 8 11 7 9 0 18 5 21 13 3 8 0 11 -7 7 -6 -4 -11 -4 -11 1 0 12 141
357 152 370 14 18 5 34 -9 18z"/>
<path d="M1782 1190 c-23 -11 -58 -20 -78 -22 -19 -1 -38 -6 -40 -10 -3 -5
-10 -6 -15 -2 -5 3 -8 1 -7 -4 2 -5 -16 -26 -38 -48 -33 -31 -44 -51 -56 -99
-12 -50 -18 -60 -35 -60 -12 0 -24 -3 -27 -5 -2 -3 -48 -154 -101 -335 -52
-182 -98 -339 -101 -349 -6 -18 -2 -19 74 -12 99 8 270 46 335 74 26 12 47 23
47 26 0 5 29 165 35 191 2 11 35 57 72 102 l68 82 38 228 c20 125 37 236 37
246 0 15 -10 17 -82 16 -59 0 -96 -6 -126 -19z m193 -12 c-3 -13 -21 -119 -40
-237 l-36 -215 -68 -84 c-67 -81 -69 -87 -85 -172 -9 -48 -16 -95 -16 -103 0
-30 -217 -95 -352 -104 l-77 -6 10 34 c5 19 49 169 97 334 85 293 88 300 114
303 21 3 28 10 33 35 19 93 25 105 81 151 44 36 64 46 88 44 17 -1 49 8 71 20
30 16 58 21 113 22 70 0 72 -1 67 -22z"/>
<path d="M2060 1190 c-53 -21 -47 -3 -86 -278 l-27 -192 -68 -80 c-60 -71 -68
-86 -78 -142 -23 -137 -24 -148 -12 -148 7 0 9 5 5 12 -4 6 -3 8 3 5 26 -16
271 143 382 247 134 127 257 348 275 499 l7 57 -76 0 c-56 0 -86 5 -115 20
-49 25 -146 25 -210 0z m200 -15 c16 -9 54 -14 104 -15 l78 0 -6 -54 c-13 -97
-86 -258 -161 -354 -24 -31 -41 -60 -38 -65 3 -6 2 -7 -4 -4 -5 3 -32 -17 -59
-44 -27 -28 -84 -78 -128 -111 -77 -60 -234 -153 -243 -145 -5 6 16 136 27
163 5 12 36 54 70 93 l61 71 32 222 33 223 34 17 c44 22 164 23 200 3z"/>
<path d="M555 993 c-14 -34 -17 -179 -6 -249 24 -157 124 -302 265 -385 l36
-21 9 24 c5 12 28 70 51 127 l41 105 -16 66 -16 66 40 94 c23 51 42 100 43
108 3 14 -14 16 -124 13 l-127 -3 -23 36 c-23 35 -24 36 -94 36 -59 0 -73 -3
-79 -17z m162 -34 l18 -30 132 3 c87 2 129 0 123 -7 -4 -5 -26 -53 -48 -105
l-40 -95 15 -66 16 -66 -37 -94 c-21 -52 -42 -104 -47 -117 l-9 -23 -33 23
c-179 122 -268 309 -246 517 4 42 8 79 8 84 1 4 30 7 65 7 62 0 66 -2 83 -31z"/>
<path d="M1130 990 c0 -5 25 -10 55 -10 47 0 57 -3 71 -25 15 -23 22 -25 99
-25 l82 0 -100 -332 c-55 -183 -101 -334 -103 -336 -1 -2 -42 1 -90 7 -83 10
-202 40 -232 59 -9 6 0 40 38 140 l50 132 -14 63 -15 62 37 104 c34 95 40 105
75 122 20 11 37 24 37 30 0 6 -19 0 -42 -14 -40 -23 -46 -33 -84 -132 l-41
-106 15 -63 c17 -70 22 -48 -62 -268 l-26 -68 24 -15 c39 -26 194 -64 269 -66
61 -2 72 0 79 17 26 61 198 658 191 664 -4 5 -41 10 -82 12 -66 3 -76 7 -95
31 -19 24 -29 27 -79 27 -31 0 -57 -4 -57 -10z"/>
</g>
</svg>
