<svg xmlns="http://www.w3.org/2000/svg" width="100%" height="100%" xmlns:xlink="http://www.w3.org/1999/xlink" viewBox="0 0 1340 880" preserveAspectRatio="xMinYMin meet" ><rect id="svgEditorBackground" x="0" y="0" width="1340" height="880" style="fill: none; stroke: none;"/><polygon style="stroke:black;fill:rosybrown;stroke-width:1px" id="e2_polygon" points="353.77,460.152 361.283,438.113 372.302,416.075 399.85,372.499 481.492,338.44 518.056,339.441 534.585,348.958 553.117,350.461 499.023,481.689 414.876,481.188 399.85,459.651"/><polygon style="stroke:black;fill:rosybrown;stroke-width:1px" id="e3_polygon" points="411,361.316 412.502,358.311 434.541,332.265 463.091,307.221 506.666,276.167 543.23,254.63 582.799,238.101 595.321,249.621 557.755,339.778 539.724,340.78 522.694,330.261 484.628,331.263"/><polygon style="stroke:black;fill:rosybrown;stroke-width:1px" id="e4_polygon" points="572.281,336.272,606.34,247.617,592.817,234.595,620.865,225.078,655.426,216.563,695.495,211.555,727.551,209.05,692.991,330.261,653.422,330.261,640.9,317.74,600.831,318.741"/><polygon style="stroke:black;fill:rosybrown;stroke-width:1px" id="e5_polygon" points="683.103,405.704,739.201,208.861,770.255,210.865,784.78,211.365,818.84,219.88,849.894,231.4,843.883,273.474,808.321,308.034,796.801,375.151,814.833,393.182,771.758,392.18,742.206,406.205"/><polygon style="stroke:black;fill:rosybrown;stroke-width:1px" id="e6_polygon" points="854.903,273.473 860.412,235.407 873.936,241.919 906.993,263.456 929.032,284.994 943.056,303.526 960.086,334.079 966.597,353.112 972.608,376.653 973.609,381.662 974.611,404.702 923.522,405.704 904.99,395.186 857.407,394.184 837.873,404.201 809.824,373.147 821.344,306.531"/><polygon style="stroke:black;fill:rosybrown;stroke-width:1px" id="e7_polygon" points="512.876,478.826 565.968,345.594 600.528,326.561 638.094,325.559 650.616,338.582 688.682,340.585 667.645,415.215 706.213,416.718 708.216,416.718 670.651,446.269 662.136,481.831 591.513,482.833 579.492,464.802 536.417,465.302"/><polygon style="stroke:black;fill:rosybrown;stroke-width:1px" id="e8_polygon" points="754.797,683.683,764.815,617.568,809.392,564.976,831.431,416.718,859.48,405.699,899.549,405.198,922.59,416.718,973.679,417.219,970.673,449.275,956.649,489.845,933.108,535.926,902.555,576.496,864.488,613.561,818.408,649.123"/><polygon style="stroke:black;fill:rosybrown;stroke-width:1px" id="e9_polygon" points="589.509,721.248,656.125,493.351,672.153,492.85,683.673,447.271,720.237,417.219,741.274,417.72,770.825,403.695,820.412,404.196,793.865,564.475,748.286,619.571,735.764,689.693,705.211,703.217,644.104,718.243"/><polygon style="stroke:black;fill:rosybrown;stroke-width:1px" id="e10_polygon" points="481.428,561.245,506.471,493.126,537.525,475.595,575.091,475.595,585.609,492.124,641.707,493.126,574.089,719.52,523,716.515,476.419,703.993,457.386,692.974,490.944,602.316"/><polygon style="stroke:black;fill:rosybrown;stroke-width:1px" id="e11_polygon" points="349.698,470.587,395.277,471.087,408.801,493.627,493.949,493.126,463.897,563.248,474.916,605.822,443.361,687.465,421.323,674.943,391.27,648.396,367.229,617.342,350.7,577.273,344.188,535.199,343.688,507.651,343.688,499.136"/></svg>